<svg width="137" height="38" viewBox="0 0 137 38" fill="none" xmlns="http://www.w3.org/2000/svg">
<path d="M26.0069 5C38.9813 5.00031 36.6741 26.98 26.9678 32.8838L26.2129 32.9307C10.4165 33.7954 -1.76032 26.4674 4.82622 16.0146C7.33601 12.8011 11.5549 11.5544 15.8575 12.3135C17.8081 7.95801 21.622 5 26.0069 5Z" fill="white"/>
<g style="mix-blend-mode:multiply">
<path d="M26.9677 32.8834C26.9677 32.8834 14.4735 26.6415 14.4735 18.9417C14.4735 11.2419 19.6371 5 26.0066 5C38.9813 5 36.674 26.9796 26.9677 32.8834Z" fill="#30B1D4"/>
</g>
<g style="mix-blend-mode:multiply">
<path d="M22.9081 15.5064C28.9731 20.2468 26.9677 32.8834 26.9677 32.8834C10.8077 34.0273 -1.86495 26.6337 4.82612 16.015C8.7476 10.9936 16.8432 10.7659 22.9081 15.5064Z" fill="#4653E8"/>
</g>
<path d="M44.24 27.5C44.624 26.492 45.04 25.412 45.488 24.26C45.952 23.092 46.424 21.924 46.904 20.756C47.384 19.572 47.848 18.444 48.296 17.372C48.76 16.3 49.176 15.348 49.544 14.516C49.912 13.668 50.208 13.012 50.432 12.548C50.768 11.844 51.144 11.348 51.56 11.06C51.976 10.756 52.512 10.604 53.168 10.604C54.048 10.604 54.752 10.844 55.28 11.324C55.504 11.708 55.808 12.316 56.192 13.148C56.576 13.98 57.008 14.964 57.488 16.1C57.984 17.22 58.496 18.428 59.024 19.724C59.552 21.02 60.072 22.332 60.584 23.66C61.112 24.988 61.6 26.268 62.048 27.5H58.352C58.224 27.148 58.04 26.684 57.8 26.108C57.576 25.516 57.304 24.812 56.984 23.996H49.136C48.864 24.636 48.608 25.252 48.368 25.844C48.144 26.436 47.944 26.988 47.768 27.5H44.24ZM53.072 14.036C52.912 14.436 52.712 14.932 52.472 15.524C52.248 16.1 52 16.724 51.728 17.396C51.472 18.052 51.216 18.7 50.96 19.34C50.72 19.964 50.504 20.524 50.312 21.02H55.808C55.568 20.428 55.28 19.716 54.944 18.884C54.624 18.052 54.296 17.212 53.96 16.364C53.64 15.5 53.344 14.724 53.072 14.036ZM66.6253 27.5H63.2653V16.7C63.2653 16.252 63.4173 15.9 63.7213 15.644C64.0253 15.388 64.4573 15.26 65.0173 15.26C65.5933 15.26 66.1293 15.356 66.6253 15.548V27.5ZM63.6013 12.932C63.2493 12.564 63.0733 12.132 63.0733 11.636C63.0733 11.124 63.2493 10.692 63.6013 10.34C63.9693 9.988 64.4173 9.812 64.9453 9.812C65.4733 9.812 65.9133 9.988 66.2653 10.34C66.6333 10.692 66.8173 11.124 66.8173 11.636C66.8173 12.132 66.6333 12.564 66.2653 12.932C65.9133 13.284 65.4733 13.46 64.9453 13.46C64.4173 13.46 63.9693 13.284 63.6013 12.932ZM81.3554 27.5C81.1794 27.532 80.8914 27.564 80.4914 27.596C80.0914 27.644 79.6434 27.684 79.1474 27.716C78.6514 27.748 78.1554 27.772 77.6594 27.788C77.1794 27.82 76.7714 27.836 76.4354 27.836C74.7874 27.836 73.3954 27.556 72.2594 26.996C71.1234 26.42 70.2594 25.62 69.6674 24.596C69.0914 23.572 68.8034 22.372 68.8034 20.996C68.8034 19.716 69.0514 18.628 69.5474 17.732C70.0594 16.82 70.7474 16.124 71.6114 15.644C72.4754 15.164 73.4274 14.924 74.4674 14.924C75.2514 14.924 75.9394 15.06 76.5314 15.332C77.1234 15.588 77.6114 15.956 77.9954 16.436V11.252C77.9954 10.804 78.1474 10.452 78.4514 10.196C78.7554 9.94 79.1874 9.812 79.7474 9.812C80.3234 9.812 80.8594 9.908 81.3554 10.1V27.5ZM77.9954 20.828C77.9954 19.852 77.7394 19.076 77.2274 18.5C76.7314 17.924 76.0594 17.636 75.2114 17.636C74.2834 17.636 73.5554 17.964 73.0274 18.62C72.5154 19.276 72.2594 20.188 72.2594 21.356C72.2594 22.604 72.5874 23.564 73.2434 24.236C73.9154 24.908 74.9154 25.244 76.2434 25.244C76.6114 25.244 76.9714 25.228 77.3234 25.196C77.6754 25.148 77.8994 25.092 77.9954 25.028V20.828Z" fill="#4653E8"/>
<path d="M84.2694 12.884C84.2694 11.636 84.9174 11.012 86.2134 11.012H93.4854C94.0934 11.012 94.5254 11.14 94.7814 11.396C95.0534 11.652 95.1894 12.02 95.1894 12.5C95.1894 12.852 95.1334 13.18 95.0214 13.484C94.9254 13.772 94.8454 13.964 94.7814 14.06H87.7494V17.9H92.8134C93.4214 17.9 93.8534 18.028 94.1094 18.284C94.3814 18.54 94.5174 18.908 94.5174 19.388C94.5174 19.74 94.4614 20.068 94.3494 20.372C94.2534 20.66 94.1734 20.852 94.1094 20.948H87.7494V27.5H84.2694V12.884ZM100.375 27.5H97.0152V11.252C97.0152 10.804 97.1672 10.452 97.4712 10.196C97.7753 9.94 98.2072 9.812 98.7672 9.812C99.3432 9.812 99.8792 9.908 100.375 10.1V27.5ZM103.279 24.764C102.719 23.772 102.439 22.644 102.439 21.38C102.439 20.116 102.719 18.996 103.279 18.02C103.855 17.028 104.639 16.252 105.631 15.692C106.639 15.132 107.791 14.852 109.087 14.852C110.383 14.852 111.527 15.132 112.519 15.692C113.527 16.252 114.311 17.028 114.871 18.02C115.447 18.996 115.735 20.116 115.735 21.38C115.735 22.644 115.447 23.772 114.871 24.764C114.311 25.74 113.527 26.508 112.519 27.068C111.527 27.628 110.383 27.908 109.087 27.908C107.791 27.908 106.639 27.628 105.631 27.068C104.639 26.508 103.855 25.74 103.279 24.764ZM112.327 21.38C112.327 20.196 112.031 19.26 111.439 18.572C110.863 17.868 110.079 17.516 109.087 17.516C108.111 17.516 107.327 17.868 106.735 18.572C106.143 19.26 105.847 20.196 105.847 21.38C105.847 22.548 106.143 23.484 106.735 24.188C107.327 24.892 108.111 25.244 109.087 25.244C110.079 25.244 110.863 24.892 111.439 24.188C112.031 23.484 112.327 22.548 112.327 21.38ZM128.462 19.34C128.782 20.492 129.062 21.484 129.302 22.316C129.542 23.132 129.71 23.692 129.806 23.996C129.886 23.82 130.038 23.372 130.262 22.652C130.486 21.916 130.75 21.028 131.054 19.988C131.374 18.932 131.694 17.844 132.014 16.724C132.174 16.196 132.43 15.82 132.782 15.596C133.134 15.372 133.534 15.26 133.982 15.26C134.366 15.26 134.718 15.324 135.038 15.452C135.374 15.58 135.622 15.724 135.782 15.884C135.686 16.284 135.526 16.828 135.302 17.516C135.078 18.204 134.806 18.98 134.486 19.844C134.182 20.708 133.854 21.604 133.502 22.532C133.15 23.444 132.798 24.332 132.446 25.196C132.094 26.06 131.758 26.828 131.438 27.5H128.078C127.998 27.244 127.87 26.86 127.694 26.348C127.534 25.82 127.35 25.244 127.142 24.62C126.95 23.98 126.758 23.348 126.566 22.724C126.39 22.1 126.23 21.556 126.086 21.092C125.942 20.612 125.846 20.276 125.798 20.084C125.75 20.292 125.654 20.652 125.51 21.164C125.366 21.676 125.198 22.252 125.006 22.892C124.814 23.532 124.614 24.172 124.406 24.812C124.214 25.452 124.038 26.02 123.878 26.516C123.734 26.996 123.63 27.324 123.566 27.5H120.206C119.966 26.972 119.678 26.3 119.342 25.484C119.022 24.668 118.678 23.82 118.31 22.94C117.958 22.044 117.63 21.196 117.326 20.396C117.022 19.596 116.782 18.948 116.606 18.452C116.35 17.764 116.222 17.196 116.222 16.748C116.222 16.268 116.374 15.9 116.678 15.644C116.998 15.388 117.414 15.26 117.926 15.26C118.214 15.26 118.518 15.292 118.838 15.356C119.158 15.42 119.35 15.492 119.414 15.572C119.638 16.356 119.87 17.18 120.11 18.044C120.366 18.908 120.614 19.74 120.854 20.54C121.094 21.34 121.31 22.052 121.502 22.676C121.694 23.284 121.838 23.74 121.934 24.044C122.014 23.804 122.126 23.444 122.27 22.964C122.414 22.468 122.622 21.732 122.894 20.756C123.166 19.78 123.526 18.46 123.974 16.796C124.118 16.252 124.342 15.86 124.646 15.62C124.95 15.38 125.374 15.26 125.918 15.26C126.222 15.26 126.51 15.292 126.782 15.356C127.07 15.42 127.294 15.508 127.454 15.62C127.806 16.932 128.142 18.172 128.462 19.34Z" fill="#30B1D4"/>
</svg>
